HIERARCHY
ROOT Hips
{
	OFFSET 0.000000 0.000000 0.000000 
	CHANNELS 6 Xposition Yposition Zposition Yrotation Zrotation Xrotation 
	JOINT Lumbar
	{
		OFFSET 0.000000 0.000000 0.000000 
		CHANNELS 3 Zrotation Xrotation Yrotation
		JOINT Neck
		{
			OFFSET 0.000000 0.445665 0.000000 
			CHANNELS 3 Zrotation Xrotation Yrotation
			End Site
			{
				OFFSET 0.000000 0.227535 0.000000 
			}
		}
		JOINT RightShoulder
		{
			OFFSET 0.019635 0.377685 0.194865 
			CHANNELS 3 Zrotation Xrotation Yrotation
			JOINT RightElbow
			{
				OFFSET 0.000000 -0.243375 0.000000 
				CHANNELS 2 Zrotation Yrotation
				JOINT RightWrist
				{
					OFFSET 0.000000 -0.264825 0.000000 
					CHANNELS 2 Zrotation Xrotation
					End Site
					{
						OFFSET 0.006600 -0.176220 0.000990 
					}
				}
			}
		}
		JOINT LeftShoulder
		{
			OFFSET 0.019635 0.377685 -0.194865 
			CHANNELS 3 Zrotation Xrotation Yrotation
			JOINT LeftElbow
			{
				OFFSET 0.000000 -0.243375 0.000000 
				CHANNELS 2 Zrotation Yrotation
				JOINT LeftWrist
				{
					OFFSET 0.000000 -0.264825 0.000000 
					CHANNELS 2 Zrotation Xrotation
					End Site
					{
						OFFSET 0.006600 -0.176220 -0.000990 
					}
				}
			}
		}
	}
	JOINT RightHip
	{
		OFFSET 0.052140 -0.069960 0.075570 
		CHANNELS 3 Zrotation Xrotation Yrotation
		JOINT RightKnee
		{
			OFFSET 0.000000 -0.402270 0.000000 
			CHANNELS 1 Zrotation
			JOINT RightAnkle
			{
				OFFSET 0.000000 -0.404085 0.000000 
				CHANNELS 3 Zrotation Xrotation Yrotation
				End Site
				{
					OFFSET 0.204105 -0.089430 0.008415 
				}
			}
		}
	}
	JOINT LeftHip
	{
		OFFSET 0.052140 -0.069960 -0.075570 
		CHANNELS 3 Zrotation Xrotation Yrotation
		JOINT LeftKnee
		{
			OFFSET 0.000000 -0.402270 0.000000 
			CHANNELS 1 Zrotation
			JOINT LeftAnkle
			{
				OFFSET 0.000000 -0.404085 0.000000 
				CHANNELS 3 Zrotation Xrotation Yrotation
				End Site
				{
					OFFSET 0.204105 -0.089430 -0.008415 
				}
			}
		}
	}
}
MOTION
Frames: 28
Frame Time: 0.02
-0.00034 -1e-05 0 176.34419 -46.91323 1.03067 57.16575 0.60498 0.64014 -5.44933 -1.70429 -0.13959 138.48145 -74.27976 -76.57784 11.81819 89.93406 -4.85355 -10.82675 151.23115 72.10484 83.09734 10.78166 -51.62046 8.28793 12.47185 50.3395 0.00214 -5.87694 -18.73527 -8.16122 -5.31513 -3.53472 54.88472 0.11716 -0.57391 -24.00018 -9.23604 5.38419 3.69853
-0.00026 -1e-05 7e-05 176.39877 -46.89412 1.04418 57.15939 0.59497 0.61471 -5.46505 -1.71402 -0.13926 138.73036 -74.24345 -76.40074 11.81442 89.93932 -4.83272 -10.82356 151.24116 72.11599 83.10779 10.78119 -51.61507 8.28916 12.44678 50.32086 -0.03072 -6.02359 -18.73921 -8.14667 -5.30224 -3.52874 54.86845 0.21447 -0.06432 -24.00168 -9.19264 5.35345 3.67117
-0.00018 -1e-05 0.00013 176.4532 -46.87506 1.05765 57.15305 0.58498 0.58936 -5.48073 -1.72372 -0.13893 138.97864 -74.2072 -76.22409 11.81064 89.94455 -4.81196 -10.82036 151.25104 72.1271 83.11835 10.78067 -51.60968 8.29036 12.42175 50.30227 -0.06349 -6.16979 -18.74315 -8.13215 -5.28939 -3.52277 54.85223 0.31154 0.44398 -24.00318 -9.14933 5.32277 3.64387
-0.00011 -1e-05 0.00019 176.50762 -46.856 1.07113 57.14672 0.575 0.56401 -5.4964 -1.73342 -0.13861 139.22683 -74.17099 -76.0475 11.80688 89.94979 -4.7912 -10.81719 151.26101 72.13821 83.12876 10.78019 -51.60428 8.29159 12.39676 50.28368 -0.09626 -6.31598 -18.74708 -8.11764 -5.27654 -3.5168 54.83601 0.40857 0.95206 -24.00468 -9.10606 5.29212 3.61659
-3e-05 -0 0.00026 176.56215 -46.83691 1.08463 57.14037 0.56501 0.53859 -5.5121 -1.74313 -0.13828 139.4755 -74.13473 -75.87058 11.80314 89.95503 -4.77038 -10.81403 151.2711 72.14935 83.1391 10.77975 -51.59894 8.29285 12.37174 50.26504 -0.12911 -6.46262 -18.75102 -8.10308 -5.26366 -3.51082 54.81974 0.50581 1.46129 -24.00618 -9.06273 5.26144 3.58926
4e-05 -0 0.00032 176.61639 -46.81789 1.09804 57.13404 0.55504 0.5134 -5.52776 -1.7528 -0.13795 139.72292 -74.09848 -75.69453 11.79926 89.96022 -4.74975 -10.81075 151.28054 72.1604 83.15014 10.77905 -51.59351 8.29391 12.3467 50.24658 -0.16169 -6.60792 -18.75494 -8.08866 -5.25088 -3.50489 54.80363 0.6025 1.9676 -24.00767 -9.01948 5.23074 3.56202
0.00012 -0 0.00038 176.67117 -46.79875 1.11164 57.1277 0.54502 0.48776 -5.54347 -1.76256 -0.13762 139.97276 -74.06229 -75.51677 11.7957 89.96557 -4.72875 -10.80773 151.29136 72.17163 83.15954 10.77894 -51.58808 8.29542 12.32175 50.22777 -0.19479 -6.75571 -18.7589 -8.07399 -5.23791 -3.49886 54.78723 0.7002 2.47925 -24.00918 -8.9761 5.20011 3.53463
0.0002 -0 0.00045 176.72542 -46.77971 1.12505 57.12135 0.53505 0.46256 -5.55913 -1.77223 -0.1373 140.22006 -74.026 -75.34084 11.79176 89.97066 -4.70808 -10.80444 151.30077 72.18266 83.17087 10.77816 -51.58301 8.29641 12.29665 50.20927 -0.22742 -6.90129 -18.76283 -8.05954 -5.22511 -3.49291 54.77108 0.79697 2.98594 -24.01068 -8.93286 5.16943 3.50739
0.00028 0 0.00051 176.77917 -46.76084 1.13826 57.11507 0.52514 0.43778 -5.57477 -1.78183 -0.13697 140.46559 -73.98971 -75.16605 11.7877 89.97587 -4.68788 -10.80094 151.30895 72.19358 83.18293 10.77708 -51.57693 8.29721 12.27161 50.19118 -0.25945 -7.04387 -18.7667 -8.04537 -5.21254 -3.48709 54.75527 0.89268 3.48697 -24.01215 -8.88967 5.1386 3.48029
0.00034 0 0.00057 176.83624 -46.74114 1.15274 57.1086 0.51486 0.41023 -5.59066 -1.79193 -0.13664 140.72536 -73.95379 -74.9814 11.78537 89.98174 -4.66517 -10.79903 151.3257 72.20554 83.18589 10.77926 -51.57229 8.30041 12.24698 50.17086 -0.29486 -7.20283 -18.77084 -8.02965 -5.19871 -3.48061 54.7376 0.99468 4.02183 -24.01373 -8.84585 5.10839 3.45221
0.00044 0 0.00064 176.88604 -46.72307 1.16446 57.10239 0.5054 0.38876 -5.60592 -1.80091 -0.13631 140.95245 -73.91686 -74.81971 11.77873 89.98535 -4.64763 -10.79349 151.32345 72.21506 83.21115 10.77358 -51.56741 8.29772 12.22098 50.15517 -0.32319 -7.32777 -18.77444 -8.01715 -5.18749 -3.4755 54.72379 1.08326 4.48441 -24.01509 -8.80357 5.07702 3.42631
0.00061 1e-05 0.0007 176.91793 -46.71046 1.1691 57.09789 0.49786 0.38239 -5.62015 -1.80742 -0.13597 141.10939 -73.87897 -74.70526 11.76461 89.98603 -4.64444 -10.7794 151.27417 72.21962 83.26986 10.75339 -51.55292 8.28129 12.19472 50.15271 -0.33148 -7.35423 -18.77631 -8.01383 -5.18374 -3.47444 54.72129 1.13594 4.75444 -24.01578 -8.7639 5.04113 3.40558
0.00081 1e-05 0.00076 176.94211 -46.69927 1.17085 57.09341 0.49119 0.38248 -5.63355 -1.81269 -0.13562 141.22902 -73.83967 -74.61774 11.74481 89.9813 -4.64579 -10.76086 151.20354 72.22123 83.35412 10.72339 -51.54959 8.25567 12.16605 50.1548 -0.33278 -7.34753 -18.77768 -8.01367 -5.18254 -3.47471 54.7225 1.17499 4.95086 -24.01626 -8.72606 5.00432 3.38717
0.00101 1e-05 0.00082 176.96859 -46.68683 1.17361 57.08832 0.48435 0.38058 -5.64695 -1.81817 -0.13528 141.35404 -73.79993 -74.52698 11.72548 89.98014 -4.64572 -10.74412 151.14109 72.22325 83.44731 10.69406 -51.53455 8.23625 12.13668 50.15451 -0.33767 -7.35928 -18.77945 -8.01184 -5.17998 -3.47421 54.7216 1.21963 5.17715 -24.01687 -8.68843 4.96881 3.36821
0.00118 2e-05 0.00088 177.00035 -46.67707 1.17774 57.08593 0.47661 0.37446 -5.66224 -1.82517 -0.13493 141.53134 -73.76507 -74.39436 11.7173 89.98471 -4.64545 -10.73053 151.09056 72.22987 83.46195 10.68323 -51.50745 8.21986 12.11646 50.15561 -0.3408 -7.35649 -18.78049 -8.01105 -5.17831 -3.47442 54.72264 1.26668 5.41827 -24.01732 -8.64642 4.92957 3.34715
0.0014 1e-05 0.00094 177.01902 -46.66188 1.17821 57.07772 0.47091 0.37898 -5.67301 -1.82865 -0.13459 141.58652 -73.71934 -74.36023 11.68171 89.96301 -4.64351 -10.70653 151.00319 72.22536 83.63608 10.62839 -51.5584 8.18046 12.0746 50.15477 -0.34593 -7.3764 -18.78292 -8.00879 -5.17534 -3.47344 54.72035 1.30563 5.61124 -24.01806 -8.61398 4.89788 3.33099
0.00172 -0 0.00102 177.00576 -46.63302 1.17017 57.055 0.47082 0.40843 -5.67481 -1.82336 -0.13427 141.34976 -73.64609 -74.54705 11.59673 89.98622 -4.66432 -10.67704 150.8777 72.19774 84.29051 10.48267 -51.37517 8.21206 11.98705 50.14852 -0.35849 -7.46451 -18.78932 -8.00204 -5.16863 -3.46911 54.70931 1.32439 5.68785 -24.01952 -8.60751 4.88741 3.32803
0.00208 -2e-05 0.00109 176.97917 -46.59829 1.15836 57.02606 0.4727 0.44887 -5.67143 -1.81445 -0.13397 140.98381 -73.56094 -74.83868 11.48016 89.96455 -4.679 -10.63198 150.70421 72.15754 85.0676 10.28872 -51.34178 8.20185 11.87278 50.13995 -0.37326 -7.57687 -18.79714 -7.99365 -5.16046 -3.4635 54.6945 1.33569 5.71877 -24.02129 -8.61062 4.88455 3.3299
0.00243 -4e-05 0.00117 176.95715 -46.56521 1.14768 56.999 0.47355 0.48621 -5.66836 -1.80674 -0.13369 140.6544 -73.48059 -75.11354 11.36116 89.88343 -4.67648 -10.58089 150.51542 72.11879 85.79428 10.09701 -51.54785 8.11676 11.76506 50.13176 -0.38697 -7.68013 -18.80429 -7.98572 -5.15266 -3.4583 54.68056 1.35117 5.77163 -24.023 -8.60934 4.87812 3.32942
0.00275 -5e-05 0.00125 176.94109 -46.53666 1.13939 56.97618 0.47502 0.51591 -5.67413 -1.8008 -0.13331 140.42079 -73.40522 -75.26584 11.31099 90.12676 -4.75424 -10.58949 150.48573 72.09867 86.6157 9.98387 -50.50424 8.40419 11.69111 50.12663 -0.40081 -7.77511 -18.81151 -7.97899 -5.14614 -3.45382 54.67042 1.36287 5.81719 -24.02439 -8.60824 4.87212 3.32964
0.00313 -8e-05 0.00132 176.90962 -46.49703 1.12522 56.94275 0.4756 0.5639 -5.65997 -1.79043 -0.13312 139.95304 -73.31358 -75.68942 11.11231 89.69938 -4.6686 -10.46446 150.10957 72.0359 87.12264 9.70097 -52.03827 7.93541 11.52764 50.11443 -0.4148 -7.89232 -18.81894 -7.96947 -5.13664 -3.44757 54.65129 1.38083 5.86775 -24.02651 -8.60906 4.86704 3.32954
0.00368 -0.00014 0.00136 176.8383 -46.43023 1.09615 56.88443 0.4736 0.66072 -5.59476 -1.76785 -0.13341 138.90588 -73.20782 -76.86746 10.49506 87.29763 -4.08737 -10.02824 148.82228 71.865 88.02745 8.9185 -61.16749 5.13227 11.24277 50.08407 -0.4305 -8.07536 -18.82641 -7.95151 -5.1186 -3.43619 54.60928 1.41821 5.94634 -24.03067 -8.61267 4.86278 3.32736
0.00429 -0.00021 0.0014 176.75213 -46.35215 1.06123 56.8152 0.47055 0.77526 -5.50932 -1.74112 -0.13387 137.61976 -73.08191 -78.27969 9.73481 84.24847 -3.35045 -9.45199 147.18182 71.64976 88.40285 7.9763 -72.78392 1.61527 10.85284 50.04658 -0.446 -8.27821 -18.83408 -7.931 -5.09772 -3.42315 54.5582 1.46214 6.03127 -24.03554 -8.61793 4.85917 3.3247
0.00487 -0.00027 0.00143 176.67308 -46.27785 1.02873 56.749 0.46773 0.88104 -5.43115 -1.71685 -0.13427 136.42166 -72.94566 -79.60145 9.04776 81.5817 -2.71483 -8.89941 145.68085 71.45129 88.12789 7.13336 -82.93166 -1.40395 10.42477 50.01175 -0.4604 -8.46532 -18.84179 -7.91239 -5.07856 -3.41121 54.51053 1.50296 6.11179 -24.04004 -8.62254 4.85519 3.32226
0.00542 -0.00035 0.00147 176.59175 -46.20883 0.99711 56.69043 0.46602 0.99047 -5.36029 -1.68999 -0.13462 135.31139 -72.88717 -80.97977 8.31545 78.53651 -1.95 -8.49869 144.26658 71.26918 91.48119 6.17016 -94.53642 -5.1476 10.33228 49.97904 -0.47981 -8.68157 -18.84899 -7.89059 -5.05754 -3.39779 54.4655 1.54414 6.19742 -24.04476 -8.62705 4.85177 3.31996
0.00607 -0.0004 0.00151 176.51216 -46.12648 0.96233 56.61383 0.46169 1.09604 -5.27023 -1.66763 -0.1351 133.95622 -72.66726 -82.1437 7.65574 76.13213 -1.41748 -7.7691 142.5889 71.03947 87.32251 5.42761 -103.66595 -7.56258 9.54895 49.94054 -0.48881 -8.84166 -18.85729 -7.87484 -5.03974 -3.38705 54.41317 1.58613 6.27413 -24.04916 -8.63206 4.84724 3.31721
0.00695 -0.00041 0.00154 176.43814 -46.00801 0.92001 56.48708 0.45077 1.18934 -5.12515 -1.65821 -0.13588 132.04085 -71.96266 -83.99763 7.13431 75.61488 -1.57055 -5.98623 140.26467 70.71673 61.05635 5.27317 -105.59798 -6.03045 6.59882 49.88554 -0.46826 -8.84025 -18.86838 -7.87646 -5.03144 -3.38422 54.3403 1.62973 6.32787 -24.05291 -8.63774 4.83947 3.3133
0.00793 -0.00039 0.00158 176.36702 -45.87711 0.87471 56.34325 0.43724 1.27768 -4.96252 -1.65356 -0.13678 129.876 -71.1049 -85.41168 6.71208 75.77826 -1.96623 -3.90822 137.68765 70.34283 27.52077 5.36005 -104.906 -3.15155 3.00745 49.82551 -0.43736 -8.78168 -18.88058 -7.88423 -5.02645 -3.3841 54.26103 1.67381 6.37177 -24.05624 -8.64385 4.8305 3.30893
